<svg width="10" height="10" viewBox="0 0 10 10" fill="none" xmlns="http://www.w3.org/2000/svg">
<path d="M8.6667 4.47501C8.77645 5.16854 8.65004 5.87685 8.30543 6.49919C7.96083 7.12152 7.4156 7.62618 6.74727 7.9414C6.07895 8.25662 5.32158 8.36634 4.58287 8.25495C3.84417 8.14356 3.16176 7.81674 2.6327 7.32097C2.10364 6.82521 1.75487 6.18573 1.636 5.49352C1.51713 4.8013 1.63422 4.09158 1.97061 3.46532C2.30699 2.83905 2.84555 2.32812 3.50967 2.00521C4.1738 1.68229 4.92967 1.56383 5.66978 1.66667C6.42472 1.77158 7.12364 2.10123 7.66331 2.60693C8.20297 3.11263 8.55475 3.76757 8.6667 4.47501Z" stroke="white" stroke-width="2" stroke-linecap="round" stroke-linejoin="round"/>
</svg>
